Coordinates
version=1
nRows=12
nColumns=24
inDegrees=yes

Units are S.I. units (second, meters, Newtons, ...)
Angles are in degrees.

endheader
time	pelvis_tilt	pelvis_list	pelvis_rotation	pelvis_tx	pelvis_ty	pelvis_tz	hip_flexion_r	hip_adduction_r	hip_rotation_r	knee_angle_r	ankle_angle_r	subtalar_angle_r	mtp_angle_r	hip_flexion_l	hip_adduction_l	hip_rotation_l	knee_angle_l	ankle_angle_l	subtalar_angle_l	mtp_angle_l	lumbar_extension	lumbar_bending	lumbar_rotation
      0.75800000	     -1.38499280	     -5.51622964	      4.75770518	     -0.42219059	      1.02771225	      0.31321915	     12.95704543	     10.39354195	     -2.43343083	    -13.28757574	      2.78674655	     -9.57814456	      8.92924197	     20.83462773	     -8.27010397	     -3.69314366	    -67.70443434	     -0.91525392	     -2.82319279	      1.40109144	     -6.02640939	      3.43988466	      1.86996383
      0.76216667	     -1.39719470	     -5.39468438	      4.72953758	     -0.41710322	      1.02845615	      0.31344121	     12.51882806	     10.32349663	     -2.29524900	    -13.05758030	      2.91087812	     -9.56941837	      8.87552726	     21.35290310	     -8.14730218	     -3.73986045	    -67.20856751	     -0.50762102	     -3.17410806	      1.30921217	     -6.06697437	      3.26211996	      2.03792946
      0.76633333	     -1.41505393	     -5.29478948	      4.72357164	     -0.41201850	      1.02916495	      0.31361310	     12.08837631	     10.26492592	     -2.22539432	    -12.81654626	      3.00946334	     -9.53378865	      8.85661151	     21.87035989	     -8.03422972	     -3.75542898	    -66.65545293	     -0.03933298	     -3.46211516	      1.28292825	     -6.08922664	      3.13079923	      2.06867232
      0.77050000	     -1.41295922	     -5.16693280	      4.70581047	     -0.40694440	      1.02991516	      0.31378597	     11.63092738	     10.18100400	     -2.11458292	    -12.57522751	      3.12079198	     -9.49787104	      8.81898691	     22.33053902	     -7.88432471	     -3.78131758	    -66.00634535	      0.36180972	     -3.77827140	      1.22717282	     -6.16783749	      2.96343718	      2.13198407
      0.77466667	     -1.39194956	     -5.04235561	      4.69119422	     -0.40185730	      1.03068518	      0.31394922	     11.14362581	     10.10059727	     -2.01732042	    -12.30986647	      3.22880438	     -9.45895371	      8.76208249	     22.74662379	     -7.73773900	     -3.81118423	    -65.28108629	      0.73675174	     -4.07776934	      1.14648223	     -6.23697645	      2.79264591	      2.20397530
      0.77883333	     -1.37115547	     -4.91456304	      4.67331385	     -0.39678346	      1.03143280	      0.31409678	     10.66019044	     10.01446590	     -1.92286085	    -12.05187179	      3.32820102	     -9.41810473	      8.70102031	     23.13880533	     -7.57896542	     -3.83426246	    -64.48673010	      1.11945339	     -4.34969743	      1.06380924	     -6.32012483	      2.62910651	      2.26008371
      0.78300000	     -1.39409746	     -4.79334384	      4.65117621	     -0.39170734	      1.03207936	      0.31424869	     10.23201926	      9.92950376	     -1.84798233	    -11.80649746	      3.41567512	     -9.37510689	      8.67423345	     23.55991184	     -7.41913480	     -3.85430249	    -63.63411558	      1.53206886	     -4.58947755	      1.03124286	     -6.34578588	      2.46089949	      2.28467682
      0.78716667	     -1.32935389	     -4.64281877	      4.62219650	     -0.38665153	      1.03287988	      0.31439166	      9.69524913	      9.82266699	     -1.73196452	    -11.53931417	      3.52362381	     -9.32484924	      8.60637696	     23.84276585	     -7.22986487	     -3.88253777	    -62.67655115	      1.83952865	     -4.83991868	      0.94173336	     -6.49390702	      2.28264020	      2.35689070
      0.79133333	     -1.36249885	     -4.52619867	      4.59372768	     -0.38160010	      1.03345989	      0.31453006	      9.28128435	      9.73956467	     -1.65587499	    -11.29335339	      3.60592504	     -9.28115104	      8.57895240	     24.22885954	     -7.06250599	     -3.89140572	    -61.69072515	      2.22638530	     -5.02998055	      0.90964502	     -6.50881673	      2.11591566	      2.37907878
      0.79550000	     -1.30598620	     -4.35578514	      4.53658455	     -0.37657018	      1.03421678	      0.31468447	      8.77066995	      9.60888742	     -1.53291820	    -11.06449404	      3.70373850	     -9.23898569	      8.52842276	     24.45803108	     -6.84519499	     -3.93133240	    -60.58667654	      2.53134715	     -5.22456757	      0.84593444	     -6.66353689	      1.91938953	      2.43734490
      0.79966667	     -1.27653893	     -4.21415744	      4.48827391	     -0.37153551	      1.03487196	      0.31482600	      8.28544031	      9.50427040	     -1.42423327	    -10.81595297	      3.79764028	     -9.19089735	      8.47192177	     24.70641697	     -6.65100241	     -3.95012626	    -59.43822594	      2.83336900	     -5.39241939	      0.77600095	     -6.76815795	      1.74296182	      2.49565497
      0.80383333	     -1.24025811	     -4.08691873	      4.43811107	     -0.36650169	      1.03549819	      0.31496926	      7.78903084	      9.41591569	     -1.30605941	    -10.55392180	      3.90080542	     -9.14325667	      8.39186168	     24.92676190	     -6.47089375	     -3.96047644	    -58.23143727	      3.10119891	     -5.53446758	      0.67606057	     -6.87329510	      1.58000817	      2.56722475
